<svg width="30" height="29" viewBox="0 0 30 29" fill="none" xmlns="http://www.w3.org/2000/svg">
<path d="M7.14212 16.2832L18.6265 4.79883C18.7499 4.67545 19.7342 3.69108 21.2922 3.1582C23.4657 2.46127 25.6812 3.03483 27.4452 4.79883C29.2499 6.56283 29.7827 8.73633 29.0858 10.9098C28.5936 12.4691 27.5686 13.5348 27.4452 13.6582L15.0998 26.0036C12.967 28.1364 7.6343 30.8848 2.71243 26.0036C-2.16876 21.1224 0.620304 15.749 2.71243 13.6582L15.9608 0.369141C16.453 -0.123047 17.2326 -0.123047 17.7248 0.369141C18.217 0.861328 18.217 1.64095 17.7248 2.13314L4.51712 15.4222C4.31237 15.5863 0.168804 19.8926 4.51712 24.2409C8.74205 28.4658 12.8843 24.6924 13.3358 24.2409L25.6812 11.8535C25.6812 11.8535 26.3781 11.1566 26.7062 10.1722C27.1171 8.8597 26.8296 7.71126 25.6812 6.56283C23.2202 4.10189 20.8407 6.15201 20.3905 6.56283L8.90612 18.0065C8.4953 18.4173 8.20918 19.1143 8.90612 19.8112C9.60305 20.5081 10.2593 20.18 10.6701 19.8112L18.6278 11.8535C19.12 11.402 19.9403 11.402 20.3918 11.8535C20.884 12.3457 20.884 13.166 20.3918 13.6582L12.4341 21.5739C11.3264 22.641 9.07018 23.502 7.14343 21.5739C5.17468 19.6458 6.03437 17.349 7.14212 16.2832Z" fill="white"/>
</svg>
