<svg width="26" height="26" viewBox="0 0 26 26" fill="none" xmlns="http://www.w3.org/2000/svg">
<path fill-rule="evenodd" clip-rule="evenodd" d="M25.0116 3.34503C25.3152 3.03069 25.4832 2.60969 25.4794 2.17269C25.4756 1.7357 25.3004 1.31768 24.9913 1.00866C24.6823 0.69965 24.2643 0.524368 23.8273 0.520571C23.3903 0.516773 22.9693 0.684765 22.655 0.988362L13 10.6434L3.34497 0.988362C3.03064 0.684765 2.60963 0.516773 2.17264 0.520571C1.73564 0.524368 1.31762 0.69965 1.00861 1.00866C0.699595 1.31768 0.524313 1.7357 0.520515 2.17269C0.516718 2.60969 0.684709 3.03069 0.988306 3.34503L10.6433 13L0.988306 22.655C0.829123 22.8088 0.702152 22.9927 0.614804 23.196C0.527455 23.3994 0.481478 23.6181 0.479555 23.8394C0.477632 24.0607 0.519801 24.2801 0.603603 24.485C0.687404 24.6898 0.811159 24.8759 0.967647 25.0324C1.12414 25.1888 1.31022 25.3126 1.51505 25.3964C1.71988 25.4802 1.93934 25.5224 2.16064 25.5204C2.38194 25.5185 2.60064 25.4725 2.80398 25.3852C3.00732 25.2978 3.19123 25.1709 3.34497 25.0117L13 15.3567L22.655 25.0117C22.9693 25.3153 23.3903 25.4833 23.8273 25.4795C24.2643 25.4757 24.6823 25.3004 24.9913 24.9914C25.3004 24.6824 25.4756 24.2644 25.4794 23.8274C25.4832 23.3904 25.3152 22.9694 25.0116 22.655L15.3566 13L25.0116 3.34503Z" fill="#AAAAAA"/>
</svg>
