<svg width="19" height="22" viewBox="0 0 19 22" fill="none" xmlns="http://www.w3.org/2000/svg">
<path d="M10.6155 5.27194C10.98 4.8125 10.9069 4.14157 10.452 3.77335C9.99718 3.40514 9.33303 3.47907 8.96859 3.9385L10.6155 5.27194ZM1.49294 15.0656L2.29221 15.7617C2.30046 15.752 2.30852 15.7422 2.31641 15.7323L1.49294 15.0656ZM1.25232 15.6598L0.199049 15.5903L0.198121 15.6105L1.25232 15.6598ZM1.05533 19.9568L0.00112668 19.9075C-0.00129353 19.9603 0.000183925 20.0134 0.00557313 20.0661L1.05533 19.9568ZM2.16272 20.9333L2.19722 21.9988C2.2676 21.9964 2.33756 21.987 2.40609 21.9705L2.16272 20.9333ZM6.38402 19.9227L6.62745 20.96L6.64377 20.9559L6.38402 19.9227ZM6.92576 19.5758L7.73991 20.2543L7.74905 20.2428L6.92576 19.5758ZM16.2479 9.53652C16.6125 9.07711 16.5395 8.40619 16.0849 8.03784C15.6302 7.66949 14.9659 7.74327 14.6014 8.20265L16.2479 9.53652ZM8.97295 3.93822C8.60837 4.39753 8.68126 5.06849 9.13603 5.43687C9.59067 5.80523 10.2548 5.73152 10.6195 5.27222L8.97295 3.93822ZM12.0307 1.79077L12.854 2.45778C12.8678 2.44031 12.8812 2.4224 12.894 2.40408L12.0307 1.79077ZM14.3229 1.33591L14.998 0.516535C14.9644 0.488276 14.9291 0.462165 14.8923 0.438327L14.3229 1.33591ZM17.4706 3.98263L18.2175 3.22949C18.1945 3.20631 18.1706 3.18422 18.1457 3.16325L17.4706 3.98263ZM17.4579 6.31094L16.7192 5.54956C16.6894 5.57918 16.6612 5.61057 16.6349 5.64356L17.4579 6.31094ZM14.6014 8.20265C14.2365 8.66177 14.3095 9.33226 14.764 9.70084C15.2185 10.0694 15.8831 9.99565 16.2479 9.53652L14.6014 8.20265ZM10.8399 4.44724C10.7535 3.86496 10.2163 3.46366 9.63992 3.55092C9.06343 3.63817 8.6662 4.18093 8.7526 4.76321L10.8399 4.44724ZM15.5668 9.92585C16.1442 9.84668 16.5488 9.30938 16.4704 8.72602C16.3919 8.14257 15.8602 7.73388 15.2825 7.81316L15.5668 9.92585ZM8.96859 3.9385L0.669458 14.3988L2.31641 15.7323L10.6155 5.27194L8.96859 3.9385ZM0.69366 14.3694C0.401883 14.7113 0.228134 15.1398 0.199049 15.5903L2.30541 15.7292C2.30464 15.7411 2.30001 15.7526 2.29221 15.7617L0.69366 14.3694ZM0.198121 15.6105L0.00112668 19.9075L2.10953 20.0061L2.30652 15.7091L0.198121 15.6105ZM0.00557313 20.0661C0.120491 21.1917 1.07767 22.0358 2.19722 21.9988L2.12821 19.8678C2.12371 19.868 2.1215 19.8672 2.12007 19.8667C2.11806 19.866 2.1154 19.8645 2.11268 19.8621C2.10995 19.8597 2.10819 19.8573 2.10719 19.8554C2.10647 19.854 2.10555 19.8519 2.10508 19.8473L0.00557313 20.0661ZM2.40609 21.9705L6.62745 20.96L6.14059 18.8853L1.91934 19.896L2.40609 21.9705ZM6.64377 20.9559C7.07364 20.8456 7.45764 20.6 7.73991 20.2543L6.11161 18.8974C6.11498 18.8934 6.11935 18.8906 6.12427 18.8893L6.64377 20.9559ZM7.74905 20.2428L16.2479 9.53652L14.6014 8.20265L6.10246 18.9089L7.74905 20.2428ZM10.6195 5.27222L12.854 2.45778L11.2074 1.12377L8.97295 3.93822L10.6195 5.27222ZM12.894 2.40408C13.089 2.12388 13.4679 2.04867 13.7534 2.2335L14.8923 0.438327C13.6551 -0.362596 12.0129 -0.036717 11.1675 1.17747L12.894 2.40408ZM13.6478 2.15528L16.7955 4.802L18.1457 3.16325L14.998 0.516535L13.6478 2.15528ZM16.7237 4.73577C16.8305 4.84393 16.8902 4.99076 16.8893 5.1436L19 5.15531C19.0039 4.43363 18.7222 3.74028 18.2175 3.22949L16.7237 4.73577ZM16.8893 5.1436C16.8886 5.29643 16.8273 5.44258 16.7192 5.54956L18.1966 7.07233C18.7069 6.56717 18.996 5.87699 19 5.15531L16.8893 5.1436ZM16.6349 5.64356L14.6014 8.20265L16.2479 9.53652L18.2809 6.97833L16.6349 5.64356ZM8.7526 4.76321C9.2441 8.077 12.2799 10.377 15.5668 9.92585L15.2825 7.81316C13.1397 8.10729 11.1604 6.60772 10.8399 4.44724L8.7526 4.76321Z" fill="#AAAAAA"/>
</svg>
