<svg width="29" height="33" viewBox="0 0 29 33" fill="none" xmlns="http://www.w3.org/2000/svg">
<path d="M6.375 31.125H22.625M9.625 26.25V31.125M9.625 26.25H19.375M9.625 26.25C5.13769 26.25 1.5 22.6123 1.5 18.125C1.5 13.6377 5.13769 10 9.625 10H19.375C23.8623 10 27.5 13.6377 27.5 18.125C27.5 22.6123 23.8623 26.25 19.375 26.25M19.375 26.25V31.125M14.5 1.875V5.125M21.8125 3.5L21 5.125M7.1875 3.5L8 5.125M17.75 18.125C17.75 19.92 16.295 21.375 14.5 21.375C12.705 21.375 11.25 19.92 11.25 18.125C11.25 16.33 12.705 14.875 14.5 14.875C16.295 14.875 17.75 16.33 17.75 18.125Z" stroke="#9A9A9A" stroke-width="2" stroke-linecap="round" stroke-linejoin="round"/>
</svg>
