<svg width="189" height="205" viewBox="0 0 189 205" fill="none" xmlns="http://www.w3.org/2000/svg">
<path d="M132.812 52.6293C94.1825 52.6293 73.1119 84.327 73.1119 108.981C73.1119 144.892 73.1119 165.547 73.1119 200.452C73.1119 201.467 74.449 201.839 74.9701 200.968L99.4501 160.049C109.985 165.332 118.765 168.854 134.568 168.854C155.638 168.854 189 147.722 189 108.981C189 70.2391 159.15 52.6293 132.812 52.6293Z" fill="#AAAAAA"/>
<path d="M160.577 112.604H160.623M132.592 112.604H132.639M104.608 112.604H104.655M137.257 112.604C137.257 115.18 135.168 117.268 132.592 117.268C130.017 117.268 127.928 115.18 127.928 112.604C127.928 110.028 130.017 107.94 132.592 107.94C135.168 107.94 137.257 110.028 137.257 112.604ZM165.241 112.604C165.241 115.18 163.153 117.268 160.577 117.268C158.001 117.268 155.913 115.18 155.913 112.604C155.913 110.028 158.001 107.94 160.577 107.94C163.153 107.94 165.241 110.028 165.241 112.604ZM109.272 112.604C109.272 115.18 107.184 117.268 104.608 117.268C102.032 117.268 99.9441 115.18 99.9441 112.604C99.9441 110.028 102.032 107.94 104.608 107.94C107.184 107.94 109.272 110.028 109.272 112.604Z" stroke="white" stroke-width="5" stroke-linecap="round" stroke-linejoin="round"/>
<path d="M56.1881 0C94.8175 0 115.888 31.6977 115.888 56.3515C115.888 92.2631 115.888 112.918 115.888 147.823C115.888 148.838 114.551 149.21 114.03 148.339L89.5499 107.42C79.0146 112.703 70.2352 116.225 54.4323 116.225C33.3617 116.225 -2.28882e-05 95.0931 -2.28882e-05 56.3515C-2.28882e-05 17.6098 29.8499 0 56.1881 0Z" fill="#2ECC71"/>
<path d="M86.3718 29.6677C85.6154 28.9168 84.6668 28.3889 83.6301 28.142C82.5935 27.8952 81.5085 27.9389 80.4951 28.2684L22.0078 47.7775C20.9231 48.1212 19.9646 48.7787 19.2533 49.6668C18.5421 50.555 18.1099 51.634 18.0116 52.7676C17.9132 53.9012 18.1529 55.0384 18.7005 56.0359C19.2482 57.0333 20.0791 57.8461 21.0884 58.3718L45.3548 70.365L57.3481 94.7114C57.8302 95.6641 58.5678 96.4644 59.4785 97.0221C60.3892 97.5798 61.4374 97.8733 62.5052 97.8697H62.905C64.0487 97.7853 65.1405 97.3591 66.0388 96.6459C66.9371 95.9331 67.6003 94.9665 67.9421 93.8719L87.7311 35.5444C88.0845 34.5367 88.1444 33.4493 87.9038 32.4089C87.6631 31.3685 87.1318 30.4179 86.3718 29.6677ZM24.4865 53.2944L75.5379 36.264L47.1937 64.6083L24.4865 53.2944ZM62.785 91.5532L51.4314 68.8459L79.7755 40.5016L62.785 91.5532Z" fill="white"/>
</svg>
