<svg width="284" height="360" viewBox="0 0 284 360" fill="none" xmlns="http://www.w3.org/2000/svg">
<path d="M199.366 172.633C172.901 188.393 140.616 169.823 142.133 169.5C192.163 158.622 196.584 127.059 196.584 127.059C186.596 102.654 159.371 110.511 159.371 110.511C158.583 145.143 117.362 147.094 117.362 147.094C114.715 135.857 114.86 109.62 114.86 109.62C102.367 100.885 99.8373 104.593 99.8373 104.593C103.777 69.9208 119.644 58.743 119.644 58.743C122.287 56.2805 134.103 50.7448 140.171 50.0277L140.388 50.9891C140.388 50.9891 134.253 66.3078 146.01 67.3164C155.903 68.1832 161.526 56.0047 163.059 52.1395C175.923 56.1268 188.2 65.0509 196.367 80.0623C215.689 115.577 199.366 172.633 199.366 172.633Z" fill="#E2E2E2"/>
<path d="M202.226 157.688L266.531 200.24C279.001 208.491 277.397 227.269 263.722 233.285L188.468 266.405C181.469 269.484 173.796 270.71 166.186 269.966C158.576 269.221 151.286 266.531 145.017 262.153L116.117 241.949" stroke="#E2E2E2" stroke-width="4.21" stroke-miterlimit="10"/>
<path d="M202.226 171.41L200.063 169.976L266.543 213.955C279.013 222.205 277.409 240.983 263.733 246.999L188.479 280.119C181.481 283.198 173.808 284.425 166.198 283.68C158.588 282.935 151.298 280.245 145.029 275.868L108.285 249.698" stroke="#E2E2E2" stroke-width="4.21" stroke-miterlimit="10"/>
<path d="M79.96 319.169C79.96 319.169 92.0873 314.141 94.4119 310.351C94.4119 310.351 94.8493 318.956 92.5798 321.895C90.3104 324.834 76.7489 332.604 76.02 331.631C75.2911 330.658 79.96 319.169 79.96 319.169Z" fill="#E2E2E2"/>
<path d="M42.6286 339.673C42.6286 339.673 44.835 342.668 52.6638 339.673C60.4925 336.679 77.5252 325.651 77.5252 325.651C77.5252 325.651 72.7735 338.409 71.0517 339.811C69.33 341.214 36.8013 357.147 36.8013 357.147C36.8013 357.147 22.2588 359.216 27.7393 348.873L42.6286 339.673Z" fill="#E2E2E2"/>
<path d="M89.4435 172.979C71.5165 179.957 52.5454 196.351 58.0023 241.752L59.5192 253.548" stroke="#E2E2E2" stroke-width="4.21" stroke-miterlimit="10"/>
<path d="M89.416 143.33C92.3474 139.146 94.9951 134.623 96.6183 129.753C98.2416 124.883 98.3244 119.607 98.7775 114.485C99.9831 100.75 101.851 89.3915 107.15 76.5983C111.74 65.5269 125.605 51.2641 139.399 49.9127L140.64 49.8063" stroke="#E2E2E2" stroke-width="4.21" stroke-miterlimit="10"/>
<path d="M124.088 171.974C124.021 171.781 123.954 171.6 123.883 171.41" stroke="#E2E2E2" stroke-width="4.21" stroke-miterlimit="10"/>
<path d="M117.362 146.242C116.685 142.258 116.18 138.397 115.786 134.733C115.788 134.664 115.78 134.595 115.763 134.528C113.698 114.068 115.786 99.1824 115.786 99.1824" stroke="#E2E2E2" stroke-width="4.21" stroke-miterlimit="10"/>
<path d="M159.981 99.1784C159.587 103.564 159.382 108.871 159.245 115.541C159.245 129.725 143.563 141.47 129.628 144.157L104.073 149.93C100.696 150.584 97.7057 148.476 95.3575 147.077C92.9423 145.639 90.4679 143.925 88.7265 142.652C86.2206 140.82 81.3941 142.294 82.3831 146.663C82.5962 147.494 82.9985 148.265 83.558 148.915C84.1178 149.564 84.82 150.077 85.6099 150.41C86.0547 150.61 86.513 150.778 86.981 150.915C87.1556 150.958 87.3104 151.058 87.4219 151.199C87.5338 151.34 87.5957 151.514 87.5984 151.694C87.6012 151.873 87.5445 152.049 87.4369 152.193C87.3297 152.337 87.1777 152.442 87.0047 152.491C84.7904 153.255 80.7361 153.708 74.1957 151.309C65.8154 148.224 65.1653 167.348 76.6228 170.678H76.6661C87.2214 173.869 98.5804 173.459 109.49 173.002C121.879 172.533 134.207 171.029 146.345 168.507C152.519 167.199 158.862 165.839 164.512 163.046C174.244 158.235 181.257 152.719 187.928 144.134C195.414 134.508 198.609 121.881 200.414 110.041C202.478 96.4953 199.626 85.0575 192.364 73.399L192.096 72.9735" stroke="#E2E2E2" stroke-width="4.21" stroke-miterlimit="10"/>
<path d="M84.294 153.026L80.7046 142.223C80.625 141.972 80.4828 141.744 80.2913 141.563C80.0994 141.382 79.865 141.252 79.6093 141.187C79.5778 141.187 79.5423 141.187 79.5069 141.163C79.4714 141.139 79.4635 141.163 79.4399 141.163C79.3571 141.158 79.2744 141.158 79.1917 141.163C78.7933 141.165 78.4108 141.316 78.12 141.589C77.8284 141.858 77.596 142.184 77.4364 142.548C77.2772 142.911 77.1945 143.304 77.1941 143.7C77.1945 144.011 77.2437 144.319 77.3399 144.614C78.1279 146.896 79.5305 151.013 80.1964 152.888" stroke="#E2E2E2" stroke-width="4.21" stroke-miterlimit="10"/>
<path d="M79.6133 141.188C79.5817 141.188 79.5463 141.188 79.5108 141.164C79.4754 141.14 79.4675 141.164 79.4438 141.164L77.4147 140.77C76.3312 140.569 75.2477 140.352 74.1642 140.151C72.864 139.891 71.556 139.675 70.2597 139.363C69.9536 139.277 69.6392 139.224 69.322 139.206C68.9225 139.205 68.5383 139.359 68.2503 139.635C67.9564 139.904 67.7219 140.232 67.5624 140.597C67.4028 140.962 67.322 141.357 67.3244 141.755C67.3224 142.062 67.3717 142.367 67.4702 142.657C68.3409 145.21 69.9997 150.041 70.5276 151.506" stroke="#E2E2E2" stroke-width="4.21" stroke-miterlimit="10"/>
<path d="M129.08 25.0902C129.08 30.2122 130.077 35.1096 132.535 39.6328C134.505 43.2654 137.397 46.9257 141.534 48.1274C142.451 48.3918 143.401 48.5245 144.355 48.5214C151.376 48.4899 152.472 40.1725 152.472 40.1725" stroke="#E2E2E2" stroke-width="4.21" stroke-miterlimit="10"/>
<path d="M162.03 28.0623V28.0859C161.705 30.6272 161.146 33.1334 160.36 35.5719C159.421 38.4808 159.199 41.5737 159.713 44.5866L160.805 50.934C160.854 51.2169 160.983 51.48 161.175 51.6932C161.367 51.9064 161.616 52.0612 161.892 52.1396C175.745 56.1623 188.042 65.0392 195.197 77.856C204.121 93.8603 205.748 113.135 205.027 131.101C204.393 146.676 201.875 162.16 198.302 177.317C196.117 186.581 191.914 195.248 185.993 202.7C180.072 210.152 172.578 216.204 164.047 220.425C152.822 226.03 141.229 230.868 129.348 234.904C123.059 236.987 117.313 240.445 112.528 245.027C107.743 249.609 104.039 255.2 101.685 261.393L73.7663 335.63C72.7403 338.371 70.7167 340.623 68.1006 341.934L41.348 355.374C37.9698 357.065 34.1161 357.554 30.4224 356.761C29.4649 356.554 28.5914 356.064 27.9165 355.354C27.2412 354.644 26.7956 353.747 26.6376 352.78C26.4792 351.813 26.6159 350.821 27.0296 349.933C27.4433 349.045 28.1147 348.302 28.9567 347.801L42.6206 339.673L61.4105 243.884C62.7327 235.338 65.8902 227.18 70.6655 219.97C75.4404 212.761 81.7204 206.671 89.0732 202.12C90.0535 201.522 91.0751 200.996 92.1307 200.544L132.862 182.857" stroke="#E2E2E2" stroke-width="4.21" stroke-miterlimit="10"/>
<path d="M150.833 3.18914C148.655 2.67017 146.401 2.55532 144.182 2.8503C144.091 2.85231 144 2.86023 143.91 2.87394" stroke="#E2E2E2" stroke-width="4.21" stroke-miterlimit="10"/>
<path d="M140.967 50.0383C140.967 50.0383 133.761 66.5588 146.648 67.3743C158.212 68.1151 162.456 52.4023 162.456 52.4023" stroke="#E2E2E2" stroke-width="4.21" stroke-miterlimit="10"/>
<path d="M161.124 33.0372C161.207 32.7338 162.448 28.254 160.076 25.433C157.704 22.612 154.489 27.4503 154.166 27.9349C154.796 20.9889 149.97 15.7211 149.97 15.7211C151.751 21.8714 149.458 25.89 149.458 25.89C140.644 27.9546 135.794 26.3825 132.354 25.7049C132.016 23.5182 132.059 21.2895 132.48 19.1174C131.16 20.9753 130.398 23.1722 130.286 25.4488H130.23C128.921 25.1009 127.68 24.5347 126.558 23.7743L124.813 22.5923C127.453 9.14917 136.665 0.686054 150.904 3.16825C165.143 5.65045 165.541 22.0251 165.541 22.0251L162.369 23.2581C162.369 23.2581 162.397 28.6638 161.124 33.0372Z" stroke="#E2E2E2" stroke-width="4.21" stroke-miterlimit="10"/>
<path d="M134.604 32.3363V38.8728C134.604 38.9524 134.624 39.0308 134.66 39.1013C134.696 39.1722 134.749 39.2333 134.813 39.2802C134.878 39.327 134.952 39.3578 135.031 39.3708C135.109 39.3834 135.19 39.3775 135.266 39.3534C135.78 39.1832 136.252 38.9066 136.653 38.5418" stroke="#E2E2E2" stroke-width="4.21" stroke-miterlimit="10"/>
<path d="M130.695 37.2987C132.757 36.495 133.522 33.5195 132.405 30.6527C131.287 27.786 128.709 26.1139 126.647 26.9176C124.586 27.7214 123.82 30.6969 124.938 33.5636C126.056 36.4304 128.633 38.1025 130.695 37.2987Z" stroke="#E2E2E2" stroke-width="4.21" stroke-miterlimit="10"/>
<path d="M143.102 39.1687C145.164 38.365 145.929 35.3895 144.812 32.5227C143.694 29.656 141.117 27.9839 139.055 28.7876C136.993 29.5914 136.228 32.5669 137.345 35.4336C138.463 38.3003 141.04 39.9725 143.102 39.1687Z" stroke="#E2E2E2" stroke-width="4.21" stroke-miterlimit="10"/>
<path d="M132.87 32.6751C132.87 32.6751 134.092 31.2803 136.653 32.9154" stroke="#E2E2E2" stroke-width="4.21" stroke-miterlimit="10"/>
<path d="M140.388 47.7145C140.388 47.7145 141.274 50.7168 143.883 60.4486" stroke="#E2E2E2" stroke-width="4.21" stroke-miterlimit="10"/>
<path d="M75.0862 332.123L90.4522 323.829C91.3328 323.352 92.0833 322.667 92.6389 321.833C93.1944 321 93.538 320.043 93.6396 319.046C96.1928 293.968 95.4126 278.114 95.4126 278.114" stroke="#E2E2E2" stroke-width="4.21" stroke-miterlimit="10"/>
<path d="M61.1386 203.514L2.00317 162.187" stroke="#E2E2E2" stroke-width="4.21" stroke-miterlimit="10"/>
<path d="M57.7896 214.901L2.00317 175.911" stroke="#E2E2E2" stroke-width="4.21" stroke-miterlimit="10"/>
<path d="M283.997 136.35V170.182C283.997 171.734 283.546 173.252 282.7 174.552C281.853 175.852 280.648 176.879 279.229 177.507L237.268 196.088L224.44 215.583C224.11 216.066 223.634 216.432 223.082 216.627C222.531 216.823 221.931 216.837 221.37 216.67C220.809 216.501 220.317 216.159 219.964 215.693C219.61 215.226 219.414 214.659 219.404 214.074V204.003L215.102 205.906C214.145 206.325 213.099 206.499 212.058 206.413C211.017 206.327 210.014 205.984 209.138 205.414C208.263 204.845 207.543 204.067 207.042 203.15C206.542 202.233 206.278 201.206 206.272 200.162V171.908C206.273 168.384 207.304 164.937 209.238 161.992C211.172 159.046 213.925 156.73 217.159 155.329L274.825 130.329C275.823 129.896 276.913 129.717 277.998 129.811C279.082 129.904 280.127 130.265 281.036 130.862C281.946 131.46 282.693 132.274 283.21 133.232C283.727 134.19 283.997 135.261 283.997 136.35Z" fill="#EDEDED"/>
<path d="M232.524 180.57C234.59 176.582 234.031 172.192 231.274 170.763C228.517 169.334 224.607 171.408 222.54 175.395C220.473 179.383 221.033 183.773 223.789 185.202C226.546 186.631 230.457 184.557 232.524 180.57Z" fill="white"/>
<path d="M250.444 172.899C252.511 168.912 251.952 164.521 249.195 163.092C246.438 161.663 242.528 163.737 240.461 167.724C238.394 171.712 238.953 176.103 241.71 177.532C244.467 178.961 248.377 176.887 250.444 172.899Z" fill="white"/>
<path d="M267.762 164.616C269.829 160.629 269.269 156.238 266.513 154.809C263.756 153.38 259.845 155.454 257.778 159.441C255.712 163.428 256.271 167.82 259.028 169.249C261.784 170.677 265.695 168.603 267.762 164.616Z" fill="white"/>
</svg>
