<svg width="25" height="29" viewBox="0 0 25 29" fill="none" xmlns="http://www.w3.org/2000/svg">
<path fill-rule="evenodd" clip-rule="evenodd" d="M4.59375 8C4.59375 3.63349 8.13349 0.09375 12.5 0.09375C16.8664 0.09375 20.4062 3.63349 20.4062 8V12.125C20.4062 16.4914 16.8664 20.0312 12.5 20.0312C8.13349 20.0312 4.59375 16.4914 4.59375 12.125V8ZM6.74696 6.96875H8.375C8.94454 6.96875 9.40625 7.43046 9.40625 8C9.40625 8.56954 8.94454 9.03125 8.375 9.03125H6.65625V11.0938H8.375C8.94454 11.0938 9.40625 11.5555 9.40625 12.125C9.40625 12.6945 8.94454 13.1562 8.375 13.1562H6.74696C7.23403 15.8918 9.62446 17.9688 12.5 17.9688C15.3755 17.9688 17.766 15.8918 18.253 13.1562H14.5625C13.993 13.1562 13.5312 12.6945 13.5312 12.125C13.5312 11.5555 13.993 11.0938 14.5625 11.0938H18.3438V9.03125H14.5625C13.993 9.03125 13.5312 8.56954 13.5312 8C13.5312 7.43046 13.993 6.96875 14.5625 6.96875H18.253C17.766 4.23317 15.3755 2.15625 12.5 2.15625C9.62446 2.15625 7.23403 4.23317 6.74696 6.96875ZM1.5 9.71875C2.06954 9.71875 2.53125 10.1805 2.53125 10.75V12.125C2.53125 17.6306 6.99442 22.0938 12.5 22.0938C18.0056 22.0938 22.4688 17.6306 22.4688 12.125V10.75C22.4688 10.1805 22.9305 9.71875 23.5 9.71875C24.0695 9.71875 24.5312 10.1805 24.5312 10.75V12.125C24.5312 18.4222 19.6932 23.5896 13.5312 24.1127V27.25C13.5312 27.8195 13.0695 28.2812 12.5 28.2812C11.9305 28.2812 11.4688 27.8195 11.4688 27.25V24.1127C5.30683 23.5896 0.46875 18.4222 0.46875 12.125V10.75C0.46875 10.1805 0.930461 9.71875 1.5 9.71875Z" fill="white"/>
</svg>
