<svg width="26" height="25" viewBox="0 0 26 25" fill="none" xmlns="http://www.w3.org/2000/svg">
<path d="M24.1804 20.0138L19.9512 15.7846L16.6982 14.4407C17.7814 12.9004 18.3616 11.0628 18.3595 9.17977C18.3595 4.11802 14.2415 0 9.17977 0C4.11802 0 0 4.11802 0 9.17977C0 14.2415 4.11802 18.3595 9.17977 18.3595C11.0792 18.3617 12.9319 17.7714 14.48 16.6708L15.8205 19.9151L20.0495 24.1444C20.3207 24.4157 20.6427 24.6308 20.997 24.7776C21.3514 24.9244 21.7312 25 22.1148 25C22.4984 25 22.8782 24.9245 23.2326 24.7777C23.587 24.6309 23.909 24.4158 24.1802 24.1446C24.4515 23.8733 24.6666 23.5513 24.8134 23.197C24.9602 22.8426 25.0358 22.4628 25.0358 22.0792C25.0358 21.6956 24.9603 21.3158 24.8135 20.9614C24.6667 20.607 24.4516 20.285 24.1804 20.0138ZM1.66905 9.17977C1.66905 5.03844 5.03844 1.66905 9.17977 1.66905C13.3211 1.66905 16.6905 5.03844 16.6905 9.17977C16.6905 13.3211 13.3211 16.6905 9.17977 16.6905C5.03844 16.6905 1.66905 13.3211 1.66905 9.17977ZM23.0001 22.9642C22.7651 23.1987 22.4468 23.3303 22.1149 23.3303C21.783 23.3303 21.4647 23.1987 21.2297 22.9642L17.2359 18.9704L15.9897 15.9539L19.0063 17.2001L23.0002 21.194C23.2346 21.4289 23.3662 21.7473 23.3662 22.0791C23.3661 22.411 23.2345 22.7293 23.0001 22.9642Z" fill="#AAAAAA"/>
</svg>
