<svg width="31" height="31" viewBox="0 0 31 31" fill="none" xmlns="http://www.w3.org/2000/svg">
<path d="M19.7799 17.2099C20.4079 17.4609 20.7233 18.1836 20.347 18.7455C19.9179 19.3865 19.3635 19.9395 18.713 20.3688C17.7196 21.0243 16.5494 21.3603 15.3595 21.3316C14.1697 21.303 13.0172 20.911 12.0564 20.2085C11.4272 19.7483 10.9001 19.1693 10.5023 18.5084C10.1535 17.929 10.5034 17.2223 11.1427 17.0019C11.782 16.7816 12.4655 17.1441 12.8979 17.664C13.0743 17.8762 13.2769 18.0671 13.5021 18.2318C14.0594 18.6394 14.7282 18.8669 15.4185 18.8835C16.1088 18.9001 16.7877 18.7051 17.364 18.3248C17.5969 18.1711 17.8085 17.9903 17.9949 17.7868C18.4518 17.2882 19.1519 16.9591 19.7799 17.2099Z" fill="white"/>
<path d="M12.5833 11.125C12.5833 10.3196 11.9304 9.66666 11.125 9.66666C10.3196 9.66666 9.66663 10.3196 9.66663 11.125V12.5833C9.66663 13.3888 10.3196 14.0417 11.125 14.0417C11.9304 14.0417 12.5833 13.3888 12.5833 12.5833V11.125Z" fill="white"/>
<path d="M21.3333 11.125C21.3333 10.3196 20.6804 9.66666 19.875 9.66666C19.0695 9.66666 18.4166 10.3196 18.4166 11.125V12.5833C18.4166 13.3888 19.0695 14.0417 19.875 14.0417C20.6804 14.0417 21.3333 13.3888 21.3333 12.5833V11.125Z" fill="white"/>
<path fill-rule="evenodd" clip-rule="evenodd" d="M0.916626 15.5C0.916626 7.44583 7.4458 0.916656 15.5 0.916656C23.554 0.916656 30.0833 7.44583 30.0833 15.5C30.0833 23.5541 23.554 30.0833 15.5 30.0833C7.4458 30.0833 0.916626 23.5541 0.916626 15.5ZM15.5 3.83332C9.05663 3.83332 3.83329 9.05666 3.83329 15.5C3.83329 21.9433 9.05663 27.1667 15.5 27.1667C21.9433 27.1667 27.1666 21.9433 27.1666 15.5C27.1666 9.05666 21.9433 3.83332 15.5 3.83332Z" fill="white"/>
</svg>
