<svg width="30" height="32" viewBox="0 0 30 32" fill="none" xmlns="http://www.w3.org/2000/svg">
<path d="M7.08337 30.2501H22.9167M10.25 25.5001V30.2501M10.25 25.5001H19.75M10.25 25.5001C5.87779 25.5001 2.33337 21.9556 2.33337 17.5834C2.33337 13.2112 5.87779 9.66673 10.25 9.66673H19.75C24.1223 9.66673 27.6667 13.2112 27.6667 17.5834C27.6667 21.9556 24.1223 25.5001 19.75 25.5001M19.75 25.5001V30.2501M15 1.75006V4.91673M22.125 3.33339L21.3334 4.91673M7.87504 3.33339L8.66671 4.91673M18.1667 17.5834C18.1667 19.3323 16.749 20.7501 15 20.7501C13.2511 20.7501 11.8334 19.3323 11.8334 17.5834C11.8334 15.8344 13.2511 14.4167 15 14.4167C16.749 14.4167 18.1667 15.8344 18.1667 17.5834Z" stroke="white" stroke-width="3" stroke-linecap="round" stroke-linejoin="round"/>
</svg>
